HIERARCHY
ROOT Hips
{
 OFFSET 0.000000 0.000000 0.000000
 CHANNELS 6 Xposition Yposition Zposition Yrotation Xrotation Zrotation
 JOINT Chest
 {
  OFFSET 0.000000 9.585900 0.002600
  CHANNELS 3 Yrotation Xrotation Zrotation
  JOINT Chest2
  {
   OFFSET 0.000000 9.601200 -0.005300
   CHANNELS 3 Yrotation Xrotation Zrotation
   JOINT Chest3
   {
    OFFSET 0.000000 9.561800 0.000000
    CHANNELS 3 Yrotation Xrotation Zrotation
    JOINT Chest4
    {
     OFFSET 0.000000 9.552100 0.000000
     CHANNELS 3 Yrotation Xrotation Zrotation
     JOINT Neck
     {
      OFFSET 0.000000 14.453000 0.000000
      CHANNELS 3 Yrotation Xrotation Zrotation
      JOINT Head
      {
       OFFSET 0.000000 8.936500 -0.011300
       CHANNELS 3 Yrotation Xrotation Zrotation
       End Site
       {
        OFFSET 0.000000 17.073600 -0.006000
       }
      }
     }
     JOINT RightCollar
     {
      OFFSET -2.921100 9.558500 0.000000
      CHANNELS 3 Yrotation Xrotation Zrotation
      JOINT RightShoulder
      {
       OFFSET -13.519700 0.000000 0.000000
       CHANNELS 3 Yrotation Xrotation Zrotation
       JOINT RightElbow
       {
        OFFSET 0.000000 -29.696600 0.000000
        CHANNELS 3 Yrotation Xrotation Zrotation
        JOINT RightWrist
        {
         OFFSET 0.000000 -24.004700 0.000000
         CHANNELS 3 Yrotation Xrotation Zrotation
         End Site
         {
          OFFSET 0.000000 -17.728500 0.000000
         }
        }
       }
      }
     }
     JOINT LeftCollar
     {
      OFFSET 2.921100 9.558500 0.000000
      CHANNELS 3 Yrotation Xrotation Zrotation
      JOINT LeftShoulder
      {
       OFFSET 13.519700 0.000000 0.000000
       CHANNELS 3 Yrotation Xrotation Zrotation
       JOINT LeftElbow
       {
        OFFSET 0.000000 -29.696600 0.000000
        CHANNELS 3 Yrotation Xrotation Zrotation
        JOINT LeftWrist
        {
         OFFSET 0.000000 -24.004700 0.000000
         CHANNELS 3 Yrotation Xrotation Zrotation
         End Site
         {
          OFFSET 0.000000 -17.728500 0.000000
         }
        }
       }
      }
     }
    }
   }
  }
 }
 JOINT RightHip
 {
  OFFSET -7.771700 -0.012900 -0.001300
  CHANNELS 3 Yrotation Xrotation Zrotation
  JOINT RightKnee
  {
   OFFSET 0.000000 -40.869800 0.001200
   CHANNELS 3 Yrotation Xrotation Zrotation
   JOINT RightAnkle
   {
    OFFSET 0.000000 -39.717900 0.002100
    CHANNELS 3 Yrotation Xrotation Zrotation
    JOINT RightToe
    {
     OFFSET 0.000000 -4.965400 11.033500
     CHANNELS 3 Yrotation Xrotation Zrotation
     End Site
     {
      OFFSET 0.000000 -1.423100 5.872300
     }
    }
   }
  }
 }
 JOINT LeftHip
 {
  OFFSET 7.771700 -0.012900 -0.001300
  CHANNELS 3 Yrotation Xrotation Zrotation
  JOINT LeftKnee
  {
   OFFSET 0.000000 -40.869800 0.001200
   CHANNELS 3 Yrotation Xrotation Zrotation
   JOINT LeftAnkle
   {
    OFFSET 0.000000 -39.717900 0.002100
    CHANNELS 3 Yrotation Xrotation Zrotation
    JOINT LeftToe
    {
     OFFSET 0.000000 -4.965400 11.033500
     CHANNELS 3 Yrotation Xrotation Zrotation
     End Site
     {
      OFFSET 0.000000 -1.423100 5.872300
     }
    }
   }
  }
 }
}
MOTION
Frames: 16
Frame Time: 0.008333
0.000000 85.388000 0.000000 0.000000 -5.767877 0.000000 0.000000 11.653817 0.000000 0.000000 -5.885947 0.000000 0.000000 -0.000000 0.000000 0.000000 -0.000000 0.000000 0.000000 12.528835 0.000000 0.000000 0.711642 0.000000 0.000000 -0.000000 0.000000 0.000000 0.000000 -90.000000 0.000000 -2.309062 0.000000 0.000000 2.309062 0.000000 0.000000 -0.000000 0.000000 0.000000 -0.000000 90.000000 0.000000 -2.309062 0.000000 0.000000 2.309062 0.000000 0.000000 8.520406 0.000000 0.000000 1.905762 0.000000 -0.000000 -4.658285 0.000000 0.000000 -0.000000 0.000000 0.000000 8.520406 0.000000 0.000000 1.905762 0.000000 -0.000000 -4.658285 0.000000 0.000000 -0.000000 0.000000
-44.403725 55.173646 43.721853 -178.919171 -31.297125 -10.982084 0.396263 14.693162 6.447115 0.136378 8.500720 2.535621 0.230681 10.624308 3.181581 0.136352 8.500756 2.535692 5.515080 24.556973 -1.292222 6.322977 0.954138 -2.715870 0.238063 9.139089 -0.295284 -19.460716 -7.406871 3.869480 63.739855 -83.956243 -45.443980 11.388940 -7.476501 -14.889990 -9.952618 7.471917 -3.936988 5.217435 -6.138310 0.786686 -108.700300 -75.536707 108.642109 10.796421 -18.175573 7.701857 -18.823865 -34.713135 6.769765 37.182321 85.817583 32.864243 -0.153411 -18.602927 1.644407 -0.590134 1.752634 -0.267548 -13.753601 -46.618877 15.243080 175.498495 79.961583 170.270664 -2.029907 -17.543392 3.205404 -0.135506 -0.902970 -0.066866
-44.405009 55.174143 43.720429 -178.914292 -31.304115 -10.974156 0.398452 14.721751 6.449435 0.133114 8.496184 2.531664 0.232733 10.645721 3.188937 0.135369 8.494504 2.532994 5.521428 24.617133 -1.277070 6.323602 0.992144 -2.710150 0.239884 9.149024 -0.298567 -19.405669 -7.334580 3.803840 64.352051 -84.040742 -46.096324 11.424797 -7.470348 -14.911250 -9.963344 7.518597 -3.920320 5.206510 -6.195808 0.792716 -108.624874 -75.501569 108.584603 10.805875 -18.186098 7.722710 -18.818223 -34.711693 6.758141 37.173132 85.825970 32.847285 -0.136345 -18.596946 1.647032 -0.589597 1.747952 -0.265671 -13.734361 -46.611081 15.224794 175.531162 79.965190 170.301389 -2.036352 -17.549885 3.213202 -0.133904 -0.898522 -0.063680
-44.407017 55.174226 43.719335 -178.909902 -31.309809 -10.960124 0.401529 14.751158 6.447176 0.135807 8.519049 2.538784 0.233697 10.654662 3.189794 0.138563 8.525071 2.542171 5.510923 24.623235 -1.284305 6.326270 1.109907 -2.683182 0.241489 9.157499 -0.307613 -19.367268 -7.347930 3.775408 64.796853 -84.053018 -46.567205 11.451716 -7.481877 -14.959927 -9.985270 7.509041 -3.904276 5.202461 -6.259969 0.786178 -108.606046 -75.490745 108.569613 10.805592 -18.204891 7.761612 -18.804161 -34.714389 6.739124 37.175067 85.835013 32.848062 -0.141840 -18.593438 1.657366 -0.585176 1.742426 -0.268315 -13.711130 -46.604714 15.202404 175.598151 79.971548 170.360469 -2.039327 -17.557123 3.227033 -0.132468 -0.892847 -0.062701
-44.408498 55.173757 43.719222 -178.908908 -31.311597 -10.945771 0.407714 14.776901 6.446266 0.141790 8.543330 2.546054 0.238013 10.677463 3.194936 0.141804 8.543358 2.546151 5.496065 24.621825 -1.289354 6.317671 1.134605 -2.679276 0.236982 9.153791 -0.315558 -19.336355 -7.372977 3.760863 65.240873 -84.037761 -47.029317 11.471036 -7.489387 -15.016010 -10.013472 7.492362 -3.886587 5.206737 -6.331266 0.765189 -108.568812 -75.479720 108.519988 10.811898 -18.236228 7.809870 -18.785758 -34.721464 6.724009 37.163988 85.843818 32.837235 -0.148205 -18.591953 1.664729 -0.585366 1.738835 -0.267019 -13.685136 -46.604459 15.184064 175.652831 79.976327 170.407862 -2.045086 -17.561100 3.243490 -0.132301 -0.888850 -0.062812
-44.409048 55.173188 43.719593 -178.909944 -31.313731 -10.934366 0.413328 14.801009 6.447435 0.144753 8.557950 2.548431 0.236841 10.669052 3.191249 0.143472 8.550897 2.547652 5.496253 24.666477 -1.276782 6.308370 1.147892 -2.674745 0.238378 9.178711 -0.316118 -19.304672 -7.376093 3.745766 65.694306 -83.960371 -47.501547 11.412431 -7.548656 -15.064047 -10.029770 7.527034 -3.870962 5.192681 -6.386446 0.780093 -108.623898 -75.501684 108.583979 10.816489 -18.256166 7.839973 -18.773230 -34.724345 6.714440 37.184229 85.846243 32.855363 -0.155803 -18.596989 1.671569 -0.587420 1.742500 -0.268476 -13.658332 -46.603988 15.170961 175.738542 79.981315 170.488791 -2.048858 -17.566375 3.258297 -0.130418 -0.883720 -0.061121
-44.408108 55.172704 43.720468 -178.912205 -31.316713 -10.929979 0.419766 14.823569 6.455368 0.146672 8.571552 2.549678 0.237637 10.662715 3.188344 0.150344 8.605601 2.557260 5.481567 24.623203 -1.289905 6.306411 1.214681 -2.649978 0.237708 9.153221 -0.327023 -19.283136 -7.378230 3.733528 65.969995 -83.925269 -47.797757 11.394079 -7.593022 -15.089860 -10.048119 7.510966 -3.857541 5.172194 -6.437394 0.795941 -108.690949 -75.526216 108.676574 10.831477 -18.305884 7.879957 -18.764525 -34.723969 6.710781 37.218824 85.845654 32.889181 -0.149194 -18.599521 1.671312 -0.587764 1.745897 -0.268007 -13.641410 -46.602762 15.166857 175.779777 79.983225 170.529556 -2.052883 -17.569272 3.267027 -0.130255 -0.882704 -0.059795
-44.408476 55.171844 43.721766 -178.915520 -31.319646 -10.916115 0.422302 14.835576 6.448446 0.147345 8.578065 2.550064 0.240667 10.697123 3.194135 0.157711 8.632260 2.560937 5.473561 24.632457 -1.286848 6.296251 1.170085 -2.665627 0.243186 9.131075 -0.336213 -19.285891 -7.405694 3.736647 65.896457 -83.902473 -47.727044 11.429269 -7.610470 -15.130618 -10.061102 7.465328 -3.849696 5.148682 -6.457371 0.822662 -108.762848 -75.554809 108.758696 10.844573 -18.361771 7.935899 -18.750420 -34.729785 6.704330 37.178613 85.855134 32.852298 -0.186542 -18.598333 1.680382 -0.571608 1.743449 -0.266546 -13.616040 -46.603722 15.148380 175.796717 79.986296 170.545275 -2.055897 -17.568842 3.274155 -0.131500 -0.881512 -0.058860
-44.408787 55.170997 43.723472 -178.913341 -31.322270 -10.904949 0.421645 14.847781 6.441920 0.147736 8.584283 2.550535 0.261884 10.774941 3.213620 0.141359 8.567609 2.546042 5.477103 24.682914 -1.272099 6.283015 1.128894 -2.678859 0.251018 9.142382 -0.337895 -19.286770 -7.421017 3.734394 65.888667 -83.907068 -47.726132 11.457283 -7.614893 -15.130513 -10.071813 7.467504 -3.843131 5.136704 -6.479214 0.848426 -108.844136 -75.585174 108.825163 10.841789 -18.404267 7.997320 -18.741801 -34.735180 6.690378 37.199936 85.859993 32.871800 -0.175871 -18.596420 1.677813 -0.571106 1.740330 -0.263851 -13.598734 -46.604897 15.129424 175.800579 79.989281 170.548499 -2.058172 -17.566215 3.278486 -0.128944 -0.881824 -0.058376
-44.409443 55.170308 43.725351 -178.919300 -31.328027 -10.887431 0.429308 14.872161 6.439409 0.159365 8.609944 2.558527 0.263538 10.770617 3.210061 0.131959 8.555010 2.541149 5.479812 24.710791 -1.262178 6.268178 1.183321 -2.653336 0.259504 9.163919 -0.337803 -19.284814 -7.428548 3.722573 65.582851 -83.926607 -47.422572 11.470058 -7.650680 -15.156319 -10.092459 7.494416 -3.831043 5.130134 -6.527357 0.863466 -108.900521 -75.610767 108.891405 10.838771 -18.433921 8.028691 -18.720931 -34.739888 6.672322 37.250869 85.862352 32.926839 -0.188606 -18.596090 1.683197 -0.559663 1.740822 -0.266733 -13.573463 -46.602172 15.105849 175.804417 79.993891 170.550945 -2.056674 -17.567005 3.279965 -0.128820 -0.880211 -0.057339
-44.408654 55.169598 43.728364 -178.923246 -31.329022 -10.879908 0.442849 14.886806 6.449295 0.155773 8.608039 2.552760 0.272326 10.795354 3.219040 0.140104 8.569972 2.540403 5.458952 24.683633 -1.267479 6.257804 1.223758 -2.633242 0.253369 9.171536 -0.338611 -19.287494 -7.452247 3.710993 65.312046 -83.957475 -47.154945 11.467006 -7.668917 -15.139136 -10.126101 7.489814 -3.820257 5.110674 -6.562790 0.889158 -108.947086 -75.635871 108.960604 10.827707 -18.456568 8.048258 -18.709459 -34.743907 6.671338 37.218718 85.862514 32.901384 -0.225239 -18.594374 1.695670 -0.529698 1.743276 -0.271559 -13.562494 -46.603349 15.101369 175.812540 79.997185 170.557932 -2.063181 -17.566552 3.279491 -0.129760 -0.878987 -0.053419
-44.408855 55.168955 43.731556 -178.925534 -31.330222 -10.867765 0.449781 14.899898 6.449993 0.160091 8.618261 2.555393 0.268943 10.800563 3.219680 0.152850 8.588330 2.543977 5.441697 24.696304 -1.260992 6.243483 1.201415 -2.642273 0.242612 9.171249 -0.341017 -19.280427 -7.443405 3.684216 65.541686 -84.010395 -47.399928 11.436047 -7.654543 -15.120074 -10.158673 7.493629 -3.816131 5.101437 -6.609790 0.892412 -108.941517 -75.634983 108.965147 10.805668 -18.461267 8.060407 -18.701055 -34.753039 6.665645 37.202935 85.869245 32.882417 -0.229207 -18.582890 1.700367 -0.587065 1.733724 -0.270765 -13.547916 -46.605710 15.089826 175.792960 80.000686 170.534036 -2.072110 -17.560784 3.285045 -0.128590 -0.882640 -0.054879
-44.408221 55.168851 43.734775 -178.926217 -31.333266 -10.862383 0.456212 14.917140 6.457045 0.160993 8.629012 2.558329 0.262953 10.784455 3.210965 0.161003 8.629059 2.558464 5.426585 24.691761 -1.266467 6.227223 1.193960 -2.645172 0.241175 9.154841 -0.351464 -19.274195 -7.450494 3.671851 65.318320 -84.024481 -47.168404 11.430475 -7.645032 -15.104034 -10.187088 7.539088 -3.800765 5.106544 -6.704444 0.865412 -108.910480 -75.623007 108.940142 10.774175 -18.448420 8.053086 -18.696674 -34.755888 6.659914 37.203856 85.870647 32.879816 -0.201052 -18.574613 1.695388 -0.583253 1.728834 -0.269334 -13.540489 -46.604175 15.086027 175.787447 80.004428 170.525071 -2.077650 -17.557628 3.288997 -0.126735 -0.882608 -0.055405
-44.408110 55.169090 43.737801 -178.926865 -31.338616 -10.855034 0.460044 14.935984 6.461103 0.162088 8.638556 2.560465 0.264519 10.796536 3.213677 0.161996 8.638594 2.560453 5.411620 24.657799 -1.282773 6.212770 1.215178 -2.633388 0.236435 9.120199 -0.364072 -19.255238 -7.430309 3.651434 65.111957 -84.018708 -46.964166 11.441558 -7.663858 -15.121784 -10.203551 7.527416 -3.797445 5.102196 -6.738530 0.857849 -108.852031 -75.598763 108.890002 10.744000 -18.420829 8.027317 -18.689532 -34.756902 6.651662 37.160211 85.874275 32.835765 -0.183684 -18.567258 1.691610 -0.580428 1.724373 -0.267889 -13.528769 -46.599371 15.076156 175.793245 80.010252 170.528567 -2.080020 -17.557727 3.289695 -0.125491 -0.878833 -0.053072
-44.409112 55.168764 43.741830 -178.929714 -31.337170 -10.841221 0.466314 14.947757 6.461714 0.166172 8.646250 2.563194 0.282365 10.842011 3.233456 0.168529 8.654992 2.566808 5.369446 24.609117 -1.309164 6.201596 1.188005 -2.644245 0.222002 9.074983 -0.384079 -19.269326 -7.459338 3.651198 65.148472 -84.024667 -47.006623 11.465502 -7.650656 -15.126187 -10.241312 7.448186 -3.806879 5.075143 -6.749497 0.862229 -108.751255 -75.567895 108.821870 10.724806 -18.381348 7.989599 -18.679320 -34.767278 6.641281 37.108538 85.879099 32.784975 -0.179237 -18.562225 1.691008 -0.579512 1.722452 -0.267348 -13.512989 -46.604057 15.058450 175.767420 80.016366 170.500178 -2.079680 -17.552891 3.291302 -0.128717 -0.878020 -0.052706
-44.409526 55.168781 43.745817 -178.929470 -31.335832 -10.834434 0.471540 14.962593 6.465113 0.169331 8.654459 2.566570 0.279364 10.853273 3.241518 0.169188 8.664621 2.570806 5.353027 24.632511 -1.308285 6.180999 1.145543 -2.667635 0.243355 9.093447 -0.394747 -19.294360 -7.511157 3.659843 65.229906 -84.007287 -47.088720 11.477458 -7.653512 -15.143415 -10.255175 7.440229 -3.807966 5.023771 -6.792917 0.861302 -108.591234 -75.513923 108.700266 10.757608 -18.363003 7.992291 -18.678440 -34.775076 6.642540 37.031186 85.885869 32.703129 -0.176569 -18.551267 1.688645 -0.574448 1.715553 -0.261997 -13.507056 -46.607800 15.052207 175.745528 80.020869 170.473754 -2.083589 -17.545090 3.295896 -0.124446 -0.881300 -0.054488
